<svg width="584" height="609" viewBox="0 0 584 609" fill="none" xmlns="http://www.w3.org/2000/svg">
<path d="M542.649 225.14C510.056 112.477 399.143 26.0366 278.5 40.6052C278.014 39.6339 277.041 39.6339 275.582 39.6339C165.641 51.7744 76.6186 131.416 44.0256 235.338C40.1339 248.449 36.7286 261.561 34.2963 275.158C33.3234 275.644 33.3234 277.101 33.8099 277.586C32.8369 282.443 32.3505 287.299 31.864 292.155C31.3776 292.641 31.3776 293.126 31.864 293.612C27.9723 329.062 29.9182 365.483 40.1339 399.476C44.512 413.559 49.8631 426.671 56.6736 438.812C56.6736 439.783 57.1601 440.754 58.133 441.24C76.6186 472.805 103.86 498.057 135.967 518.938C183.64 549.532 236.178 570.899 293.581 569.928C299.905 569.928 306.229 569.443 312.553 568.957C313.526 569.928 315.958 569.928 316.444 568.471C359.74 564.101 402.548 549.047 439.519 525.737C487.679 495.629 522.218 454.837 539.244 400.448C556.757 344.116 559.189 282.443 542.649 225.14Z" fill="#388E3C"/>
<path d="M429.926 155.236C423.243 157.039 409.125 160.3 398.598 162.446C371.782 167.854 367.521 169.484 355.575 178.583C338.616 191.543 326.753 216.606 326.837 239.351C326.921 248.02 328.174 254.2 329.594 252.57C329.928 252.14 331.098 249.651 332.1 247.076C337.196 234.459 351.983 215.233 364.597 204.847C371.03 199.525 383.979 194.29 383.979 197.036C383.979 197.981 379.551 203.645 374.288 209.31C369.359 214.718 367.688 216.949 358.415 230.768C348.808 245.274 336.277 271.195 327.839 294.284C319.653 316.686 313.638 334.539 309.628 347.929C302.861 370.846 296.762 388.956 295.676 389.3C294.34 389.815 290.664 377.541 282.978 347.07C271.032 299.348 265.936 282.954 253.739 253.085C245.385 232.742 234.357 216.434 211.969 191.457C199.688 177.638 182.228 164.42 171.702 160.815C164.852 158.412 164.267 159.614 169.446 165.536C193.84 193.775 207.959 214.718 222.912 244.501C235.527 269.822 244.215 294.97 260.004 352.649C264.014 367.412 272.87 405.007 275.71 419.598C278.885 435.82 282.393 451.699 283.312 454.188C283.646 454.961 284.9 455.991 286.153 456.334C288.993 457.107 302.694 457.107 305.618 456.334C309.962 455.047 310.797 451.528 316.812 411.015C320.822 383.635 324.247 367.241 331.098 342.779C342.71 301.064 355.074 270.508 362.592 265.53C363.678 264.843 369.025 263.47 374.622 262.526C396.343 258.835 413.803 248.965 426.167 233.257C434.437 222.786 436.609 215.061 438.698 189.311C439.784 175.664 440.452 171.802 442.959 163.648C444.546 158.326 445.632 153.52 445.465 152.919C444.88 151.374 443.543 151.546 429.926 155.236Z" fill="white"/>
<path d="M163.555 155.236C170.238 157.039 184.357 160.3 194.883 162.446C221.7 167.854 225.96 169.484 237.906 178.583C254.865 191.543 266.728 216.606 266.644 239.351C266.561 248.02 265.308 254.2 263.888 252.57C263.553 252.14 262.384 249.651 261.381 247.076C256.285 234.459 241.499 215.233 228.884 204.847C222.451 199.525 209.503 194.29 209.503 197.036C209.503 197.981 213.93 203.645 219.193 209.31C224.122 214.718 225.793 216.949 235.066 230.768C244.673 245.274 257.204 271.195 265.642 294.284C273.829 316.686 279.844 334.539 283.854 347.929C290.621 370.846 296.719 388.956 297.805 389.3C299.142 389.815 302.818 377.541 310.503 347.07C322.45 299.348 327.546 282.954 339.743 253.085C348.097 232.742 359.124 216.434 381.513 191.457C393.793 177.638 411.253 164.42 421.779 160.815C428.63 158.412 429.215 159.614 424.035 165.536C399.641 193.775 385.523 214.718 370.569 244.501C357.954 269.822 349.266 294.97 333.477 352.649C329.467 367.412 320.612 405.007 317.771 419.598C314.597 435.82 311.088 451.699 310.169 454.188C309.835 454.961 308.582 455.991 307.329 456.334C304.488 457.107 290.788 457.107 287.864 456.334C283.52 455.047 282.684 451.528 276.669 411.015C272.659 383.635 269.234 367.241 262.384 342.779C250.772 301.064 238.408 270.508 230.889 265.53C229.803 264.843 224.456 263.47 218.859 262.526C197.139 258.835 179.679 248.965 167.315 233.257C159.044 222.786 156.872 215.061 154.783 189.311C153.697 175.664 153.029 171.802 150.523 163.648C148.936 158.326 147.85 153.52 148.017 152.919C148.601 151.374 149.938 151.546 163.555 155.236Z" fill="white"/>
</svg>
