<svg width="584" height="609" viewBox="0 0 584 609" fill="none" xmlns="http://www.w3.org/2000/svg">
<path d="M545.131 224.368C512.093 111.698 400.832 25.739 280.339 40.794C279.854 39.8227 278.882 39.8227 277.424 39.8227C167.621 51.9639 79.1946 132.095 46.6422 236.024C42.7553 249.136 39.3543 262.249 36.9251 275.847C35.9533 276.332 35.9533 277.789 36.4392 278.275C35.4675 283.131 34.9816 287.988 34.4958 292.844C34.0099 293.33 34.0099 293.816 34.4958 294.301C30.6089 330.239 33.0382 366.177 43.2412 400.172C47.6139 414.256 52.9583 427.368 60.2462 439.024C60.2462 439.995 60.732 440.966 61.7038 441.452C80.6522 473.019 107.86 498.272 139.927 518.67C187.541 549.265 240.013 570.148 297.344 569.177C303.66 569.177 309.977 568.691 316.293 568.206C317.264 569.177 319.694 569.177 320.18 567.72C363.421 563.349 406.176 547.808 442.616 524.497C490.23 493.902 524.725 453.107 541.73 399.201C559.221 342.866 561.651 281.189 545.131 224.368Z" fill="#72B654"/>
<path d="M236.612 256.421C226.895 259.821 215.721 259.335 206.004 255.935C193.857 251.565 183.168 242.823 175.395 232.624L186.569 227.282C183.654 222.911 180.253 219.026 177.338 214.655C176.366 213.199 173.937 207.371 173.451 205.428C171.994 200.086 178.31 198.629 183.654 197.172C188.999 195.715 195.315 197.658 200.659 199.6C202.603 192.316 204.06 185.517 206.004 178.232C206.489 176.289 206.975 174.347 208.919 173.861C210.376 173.376 212.32 174.347 213.291 175.318C219.608 179.689 225.924 185.031 230.782 190.859C233.211 188.431 235.641 186.488 238.07 184.06L253.132 178.232C252.16 173.376 251.188 168.033 250.216 163.177C249.731 161.234 250.216 154.921 250.216 153.464C251.188 147.636 257.504 149.093 262.849 150.55C268.193 152.007 273.052 155.892 277.424 159.778C281.797 153.95 286.656 148.122 291.028 142.294C292 140.837 293.944 139.38 295.401 139.38C296.859 139.38 298.316 140.837 298.802 142.294C303.175 149.093 306.09 155.892 308.519 163.663C314.835 161.72 321.152 159.292 327.468 157.349C328.925 156.864 330.869 156.378 332.812 156.864C335.727 157.835 336.213 162.206 336.213 165.12L341.072 174.347C344.959 179.689 349.331 184.545 353.218 189.888C359.048 185.031 365.85 180.66 373.138 177.261C374.596 176.775 376.539 175.804 377.997 176.775C379.454 177.746 379.94 179.689 380.426 181.632C380.912 188.916 381.884 196.201 382.37 203.486C388.2 202.514 394.03 201.543 399.375 203.971C404.719 205.914 410.549 208.342 408.12 213.684C407.148 215.141 404.233 220.969 402.776 221.94C398.889 225.825 395.488 229.225 391.601 233.11L401.804 240.395C392.573 249.622 380.426 256.421 367.794 258.849C360.506 260.306 353.218 259.821 346.416 257.878L344.959 263.22L367.308 427.854C363.907 456.993 335.727 456.507 335.727 456.507C330.869 456.993 326.496 456.507 323.095 456.022L320.18 456.993C316.293 464.763 307.548 472.048 290.543 472.048C290.543 472.048 272.08 473.505 262.363 456.993L257.504 456.507C254.103 456.993 250.216 457.478 245.358 456.993C245.358 456.993 217.178 456.993 213.777 428.34L236.612 260.306V256.421Z" fill="white" stroke="white" stroke-width="2.7" stroke-miterlimit="10" stroke-linecap="round" stroke-linejoin="round"/>
<path d="M284.712 240.88C284.712 240.88 263.334 459.907 280.339 461.364" stroke="#72B654" stroke-width="0.75" stroke-miterlimit="10" stroke-linecap="round" stroke-linejoin="round"/>
<path d="M251.674 264.677C251.674 264.677 223.008 436.11 234.669 440.481" stroke="#72B654" stroke-width="0.75" stroke-miterlimit="10" stroke-linecap="round" stroke-linejoin="round"/>
<path d="M332.812 264.677C332.812 264.677 361.478 436.11 349.817 440.481" stroke="#72B654" stroke-width="0.75" stroke-miterlimit="10" stroke-linecap="round" stroke-linejoin="round"/>
<path d="M336.213 176.775C339.614 181.631 343.987 186.002 347.388 190.859C352.732 186.488 359.048 182.117 365.85 179.203C367.308 178.717 368.765 177.746 370.223 178.717C371.68 179.689 372.166 181.631 372.652 183.088C373.138 189.887 374.11 196.686 374.596 203C379.94 202.028 385.284 201.057 390.143 203.485C395.002 205.428 400.346 207.371 398.403 212.227C397.431 213.684 395.002 219.026 393.544 219.997C390.143 223.397 386.742 226.796 383.341 230.196" stroke="#72B654" stroke-width="0.75" stroke-miterlimit="10" stroke-linecap="round" stroke-linejoin="round"/>
<path d="M392.087 237.481C383.341 246.222 372.167 252.05 360.992 254.478C348.846 256.907 335.727 253.993 326.982 245.737C322.609 241.852 318.722 236.995 315.807 231.653C314.35 229.71 313.378 227.768 312.406 225.825" stroke="#72B654" stroke-width="0.75" stroke-miterlimit="10" stroke-linecap="round" stroke-linejoin="round"/>
<path d="M241.957 185.517C239.527 187.945 237.584 189.402 235.155 191.83C230.296 186.488 224.952 181.631 219.121 177.746C217.664 176.775 216.206 175.804 215.235 176.289C213.291 176.775 212.805 179.203 212.319 180.174C210.376 186.974 209.404 193.287 207.461 200.086C202.602 198.143 197.258 196.686 191.913 197.658C186.569 198.629 180.739 200.572 182.196 205.914C182.682 207.856 185.111 213.198 185.597 214.655C188.512 218.541 191.428 222.426 194.343 226.311" stroke="#72B654" stroke-width="0.75" stroke-miterlimit="10" stroke-linecap="round" stroke-linejoin="round"/>
<path d="M184.14 231.167C191.428 240.395 201.145 249.136 212.319 252.536C223.494 256.421 237.098 255.935 247.301 249.622C252.645 246.708 256.532 241.852 260.905 236.995C263.82 234.081 265.764 230.682 268.193 227.282" stroke="#72B654" stroke-width="0.75" stroke-miterlimit="10" stroke-linecap="round" stroke-linejoin="round"/>
<path d="M244.386 180.66C247.301 192.316 252.646 203.971 260.905 211.742C269.651 220.483 281.797 225.34 293.944 223.883C300.26 222.911 305.604 220.969 311.434 218.055C317.265 215.141 323.095 212.227 327.468 207.856C332.326 203.486 336.213 197.658 336.213 191.344C336.213 189.887 336.213 188.431 335.727 187.945C333.298 185.517 328.439 188.431 326.982 185.517C329.411 179.689 330.869 173.375 331.355 167.062C331.84 164.148 331.355 160.263 328.439 159.292C326.982 158.806 325.524 159.292 323.581 159.777C317.751 161.72 311.92 163.663 306.09 165.605C303.661 158.806 301.231 152.007 297.345 145.694C296.373 144.237 295.401 142.78 294.429 142.78C292.486 142.78 291.514 144.237 290.543 145.694C286.656 151.036 281.797 156.378 277.91 161.72C274.024 158.32 269.651 154.435 264.306 152.978C258.962 151.521 253.132 150.55 252.646 155.892C252.16 157.835 252.16 163.663 252.646 164.634C253.618 169.005 254.589 173.861 255.561 178.718" stroke="#72B654" stroke-width="0.75" stroke-miterlimit="10" stroke-linecap="round" stroke-linejoin="round"/>
</svg>
