<svg width="584" height="609" viewBox="0 0 584 609" fill="none" xmlns="http://www.w3.org/2000/svg">
<path d="M542.649 225.14C510.056 112.477 399.143 26.0366 278.5 40.6052C278.014 39.6339 277.041 39.6339 275.582 39.6339C165.641 51.7744 76.6186 131.416 44.0256 235.338C40.1339 248.449 36.7286 261.561 34.2963 275.158C33.3234 275.644 33.3234 277.101 33.8099 277.586C32.8369 282.443 32.3505 287.299 31.864 292.155C31.3776 292.641 31.3776 293.126 31.864 293.612C27.9723 329.062 29.9182 365.483 40.1339 399.476C44.512 413.559 49.8631 426.671 56.6736 438.812C56.6736 439.783 57.1601 440.754 58.133 441.24C76.6186 472.805 103.86 498.057 135.967 518.938C183.64 549.532 236.178 570.899 293.581 569.928C299.905 569.928 306.229 569.443 312.553 568.957C313.526 569.928 315.958 569.928 316.444 568.471C359.74 564.101 402.548 549.047 439.519 525.737C487.679 495.629 522.218 454.837 539.244 400.448C556.757 344.116 559.189 282.443 542.649 225.14Z" fill="#7CB342"/>
<path d="M415.926 155.236C409.243 157.039 395.125 160.3 384.598 162.446C357.782 167.854 353.521 169.484 341.575 178.583C324.616 191.543 312.753 216.606 312.837 239.351C312.921 248.02 314.174 254.2 315.594 252.57C315.928 252.14 317.098 249.651 318.1 247.076C323.196 234.459 337.983 215.233 350.597 204.847C357.03 199.525 369.979 194.29 369.979 197.036C369.979 197.981 365.551 203.645 360.288 209.31C355.359 214.718 353.688 216.949 344.415 230.768C334.808 245.274 322.277 271.195 313.839 294.284C305.653 316.686 299.638 334.539 295.628 347.929C288.861 370.846 282.762 388.956 281.676 389.3C280.34 389.815 276.664 377.541 268.978 347.07C257.032 299.348 251.936 282.954 239.739 253.085C231.385 232.742 220.357 216.434 197.969 191.457C185.688 177.638 168.228 164.42 157.702 160.815C150.852 158.412 150.267 159.614 155.446 165.536C179.84 193.775 193.959 214.718 208.912 244.501C221.527 269.822 230.215 294.97 246.004 352.649C250.014 367.412 258.87 405.007 261.71 419.598C264.885 435.82 268.393 451.699 269.312 454.188C269.646 454.961 270.9 455.991 272.153 456.334C274.993 457.107 288.694 457.107 291.618 456.334C295.962 455.047 296.797 451.528 302.812 411.015C306.822 383.635 310.247 367.241 317.098 342.779C328.71 301.064 341.074 270.508 348.592 265.53C349.678 264.843 355.025 263.47 360.622 262.526C382.343 258.835 399.803 248.965 412.167 233.257C420.437 222.786 422.609 215.061 424.698 189.311C425.784 175.664 426.452 171.802 428.959 163.648C430.546 158.326 431.632 153.52 431.465 152.919C430.88 151.374 429.543 151.546 415.926 155.236Z" fill="white"/>
</svg>
