<svg width="584" height="609" viewBox="0 0 584 609" fill="none" xmlns="http://www.w3.org/2000/svg">
<path d="M545.617 225.825C513.551 112.67 402.775 26.7105 282.283 40.7942C281.797 39.8229 280.825 39.8229 279.368 39.8229C169.564 51.4784 80.1665 131.124 47.1282 234.567C43.2414 247.679 39.8404 260.792 37.4111 274.39C36.4394 274.876 36.4394 276.332 36.9252 276.818C35.9535 281.675 35.4677 286.531 34.9818 291.387C34.4959 291.873 34.4959 292.359 34.9818 292.844C30.6091 328.297 32.5525 364.234 42.7555 398.715C46.6424 412.799 52.4726 425.911 59.2746 438.053C59.2746 439.024 59.7605 439.995 60.7322 440.481C79.1948 472.048 106.403 497.301 138.469 518.184C186.083 549.265 238.07 570.148 295.887 569.663C302.203 569.663 308.519 569.177 314.835 568.691C315.807 569.663 318.236 569.663 318.722 568.206C361.964 563.835 404.719 548.78 441.644 525.954C489.744 495.844 524.24 455.05 541.731 401.143C559.221 344.323 561.651 282.646 545.617 225.825Z" fill="#F3C101"/>
<path d="M298.802 273.418C298.802 273.418 338.156 154.435 205.031 159.292C205.031 159.292 74.336 163.177 113.205 273.418C113.205 273.418 122.436 321.497 205.031 316.155C204.546 316.155 282.769 321.012 298.802 273.418Z" fill="white" stroke="white" stroke-miterlimit="10"/>
<path d="M131.181 218.055C131.181 218.055 175.394 162.691 237.098 185.031" stroke="#F3C101" stroke-width="0.75" stroke-miterlimit="10" stroke-linecap="round" stroke-linejoin="round"/>
<path d="M450.389 342.38C450.389 342.38 542.702 287.017 453.304 215.141C453.304 215.141 365.85 144.237 329.411 237.967C329.411 237.967 308.519 274.39 364.878 317.127C364.878 317.613 412.978 364.72 450.389 342.38Z" fill="white" stroke="white" stroke-miterlimit="10"/>
<path d="M372.167 212.713C372.167 212.713 431.927 201.543 459.621 250.593" stroke="#F3C101" stroke-width="0.75" stroke-miterlimit="10" stroke-linecap="round" stroke-linejoin="round"/>
<path d="M365.85 431.739C365.85 431.739 401.804 330.239 287.142 331.696C287.142 331.696 174.909 333.153 206.004 428.34C206.004 428.34 213.291 469.62 284.226 466.706C283.741 466.706 351.275 472.534 365.85 431.739Z" fill="white" stroke="white" stroke-miterlimit="10"/>
<path d="M222.522 381.232C222.522 381.232 261.391 334.124 313.864 354.521" stroke="#F3C101" stroke-width="0.75" stroke-miterlimit="10" stroke-linecap="round" stroke-linejoin="round"/>
</svg>
