<svg width="584" height="609" viewBox="0 0 584 609" fill="none" xmlns="http://www.w3.org/2000/svg">
<path d="M60.2461 439.51C78.7086 471.077 105.917 496.816 137.983 517.699C185.597 548.78 237.584 570.148 295.401 569.663C301.717 569.663 308.033 569.177 314.349 568.691C315.321 569.663 317.75 569.663 318.236 568.206C361.477 563.835 404.233 549.266 441.158 525.955C489.258 495.845 523.754 455.05 541.244 401.144C559.221 344.809 562.136 283.132 546.103 225.825C513.551 113.156 403.261 26.7107 282.769 40.3087C282.283 39.3374 281.311 39.3374 279.853 39.3374C170.05 50.993 80.6521 130.153 47.6138 234.081C43.7269 247.194 40.3259 260.306 37.8967 273.904C36.9249 274.39 36.4391 275.847 37.4108 276.333C36.4391 281.189 35.9532 286.046 35.4674 290.902C34.9815 291.388 34.9815 291.873 35.4674 292.359C30.6088 327.811 32.5522 364.235 42.2694 398.23C46.1562 412.314 51.9865 425.426 58.7885 437.567C58.7885 438.053 59.2744 439.51 60.2461 439.51Z" fill="#BDB521"/>
<path d="M311.92 277.304C311.434 270.019 311.92 262.734 313.864 255.45C316.293 246.708 321.152 237.966 329.411 235.053C334.756 233.596 340.586 235.052 345.93 234.567C357.105 234.081 367.794 224.854 370.709 213.684C370.223 221.94 372.167 230.196 371.681 238.452C371.195 246.708 368.28 254.964 363.421 261.763C361.478 264.191 359.534 266.619 356.619 268.562C350.789 272.447 343.501 272.933 336.699 273.419C329.897 273.904 322.609 275.361 317.751 280.218" fill="white"/>
<path d="M292.486 330.239C292.486 322.955 294.429 315.67 296.859 308.871C300.26 300.615 306.09 291.873 314.349 290.902C319.694 289.931 325.038 292.359 330.869 292.359C342.043 293.33 353.704 285.56 358.077 274.39C357.105 282.646 357.591 290.902 356.133 299.158C354.676 307.414 350.789 315.184 345.444 321.012C343.501 323.44 341.072 325.383 338.156 326.84C331.84 329.754 325.038 329.268 318.236 329.268C311.434 329.268 304.146 329.268 298.802 334.125" fill="white"/>
<path d="M274.995 377.832C275.481 370.548 277.424 363.263 280.34 356.464C283.741 348.208 290.057 339.952 298.802 338.981C304.147 338.495 309.491 340.923 314.835 341.409C326.01 342.866 338.157 335.581 342.529 324.897C341.072 333.153 341.558 341.409 339.614 349.665C337.671 357.921 333.784 365.206 327.954 371.033C325.524 373.462 323.095 375.404 320.18 376.861C313.864 379.775 306.576 378.804 299.774 378.318C292.972 377.832 285.684 377.832 279.854 382.203" fill="white"/>
<path d="M257.019 424.455C257.99 417.17 260.42 409.885 263.821 403.572C267.707 395.802 274.509 388.031 283.255 387.546C288.599 387.06 293.944 389.974 299.288 390.945C310.463 392.888 322.609 386.574 327.954 375.89C326.01 383.66 326.01 392.402 323.581 400.172C321.152 407.943 316.779 415.227 310.463 421.055C308.034 422.998 305.604 424.94 302.689 426.397C296.373 428.826 289.085 427.369 282.283 426.397C275.481 425.426 268.193 424.94 262.363 428.826" fill="white"/>
<path d="M299.774 272.933C304.632 267.591 309.005 261.278 311.92 254.479C315.321 246.223 317.264 236.024 312.406 229.225C309.005 224.854 303.66 222.426 299.774 218.541C291.028 210.771 288.599 197.172 293.457 186.488C288.599 193.287 282.283 198.629 277.424 204.943C272.566 211.742 270.136 219.998 269.65 228.254C269.65 231.653 269.65 234.567 270.622 237.967C272.566 244.766 278.396 249.137 283.254 253.993C288.113 258.85 292.972 264.192 293.943 270.991" fill="white"/>
<path d="M281.797 326.354C286.169 320.526 289.57 313.727 292 306.928C294.429 298.187 295.401 287.988 289.57 281.675C285.684 277.79 280.339 275.847 275.966 272.933C266.735 266.62 262.363 253.507 265.764 242.337C261.877 249.622 255.561 255.45 251.674 262.735C247.787 270.019 245.843 278.275 246.329 286.531C246.329 289.931 247.301 292.845 248.273 295.758C251.188 302.072 257.018 305.957 262.848 309.842C268.193 313.727 274.023 318.584 275.481 325.383" fill="white"/>
<path d="M265.764 374.919C269.65 368.605 273.051 361.806 274.995 355.007C277.424 346.266 277.424 336.067 271.108 329.754C267.221 325.869 261.391 324.412 257.018 321.498C247.301 315.67 242.443 302.558 245.358 291.388C241.471 298.672 236.126 304.986 232.24 312.27C228.839 319.555 227.381 328.297 228.353 336.553C228.839 339.952 229.324 342.866 230.782 345.78C234.183 352.093 240.013 355.493 245.843 359.378C251.674 363.263 257.504 367.634 258.962 374.433" fill="white"/>
<path d="M251.674 422.512C255.561 416.199 257.99 408.914 259.448 402.115C261.391 393.373 260.419 383.175 254.103 377.347C249.731 373.948 244.386 372.491 239.528 370.062C229.325 364.72 223.98 352.093 226.409 340.438C223.008 348.208 217.664 354.522 214.749 362.292C211.834 370.062 210.862 378.318 212.32 386.574C212.805 389.488 213.777 392.888 215.235 395.316C218.636 401.144 224.952 404.543 231.268 407.943C237.098 411.342 243.414 415.713 245.358 422.027" fill="white"/>
<path d="M326.01 227.768C332.326 221.455 338.642 215.141 343.987 207.856C348.845 200.572 352.732 191.344 353.218 182.603C353.218 174.833 350.789 167.548 349.331 159.778C347.874 152.493 348.845 143.751 351.275 136.952C349.817 143.266 345.444 152.007 339.128 156.864C333.298 161.72 326.496 165.605 321.637 171.919C315.321 179.689 312.406 190.373 312.892 200.086C313.378 209.799 316.779 219.026 321.637 227.282L239.042 474.962C239.042 474.962 254.589 439.995 222.522 422.512" stroke="white" stroke-miterlimit="10"/>
<path d="M326.01 229.71C332.326 223.397 338.642 217.084 343.987 209.799C348.845 202.514 352.732 193.287 353.218 184.545C353.218 176.775 350.789 169.49 349.331 161.72C347.874 154.435 348.845 145.694 351.275 138.895C349.817 145.208 345.444 153.95 339.128 158.806C333.298 163.662 326.496 167.548 321.637 173.861C315.321 181.631 312.406 192.316 312.892 202.028C313.378 211.741 316.779 220.969 321.637 229.225" fill="white"/>
</svg>
