<svg width="584" height="609" viewBox="0 0 584 609" fill="none" xmlns="http://www.w3.org/2000/svg">
<path d="M545.132 224.854C512.579 112.184 401.804 25.739 281.311 40.3084C280.825 39.3371 279.854 39.3371 278.396 39.3371C168.592 51.4782 79.6807 131.124 47.1282 235.052C43.2414 248.165 39.8404 261.277 37.4111 274.875C36.4394 275.361 36.4394 276.818 36.9252 277.304C35.9535 282.16 35.4677 287.017 34.9818 291.873C34.496 292.359 34.496 292.844 34.9818 293.33C31.095 328.782 33.0384 365.206 43.2414 399.201C47.6141 413.284 52.9585 426.397 59.7605 438.538C59.7605 439.509 60.2464 440.481 61.2181 440.966C79.6807 472.533 106.889 497.787 138.955 518.67C186.569 549.265 239.042 570.634 296.373 569.662C302.689 569.662 309.005 569.177 315.321 568.691C316.293 569.662 318.722 569.662 319.208 568.206C362.449 563.835 405.205 548.78 442.13 525.469C490.23 495.359 524.726 454.564 541.731 400.172C559.221 343.837 561.651 282.16 545.132 224.854Z" fill="#DBA91A"/>
<path d="M330.869 216.598H327.954C328.439 215.627 328.925 214.17 328.925 212.713V199.601C328.925 194.744 325.038 190.859 320.18 190.859H310.463C309.491 190.859 309.005 190.373 308.519 189.402L293.458 137.438C292.972 135.495 290.057 135.495 289.571 137.438L274.509 190.859H273.538H262.849C257.99 190.859 254.103 194.744 254.103 199.601V212.713C254.103 214.17 254.589 215.627 255.075 216.598H252.16C241.957 216.598 233.697 224.854 233.697 235.053V458.935C233.697 469.134 241.957 477.39 252.16 477.39H330.869C341.072 477.39 349.331 469.134 349.331 458.935V234.567C348.845 224.369 340.586 216.598 330.869 216.598Z" fill="white" stroke="white" stroke-width="2.7" stroke-miterlimit="10" stroke-linecap="round" stroke-linejoin="round"/>
<path d="M251.674 213.684C251.674 213.684 292 230.196 331.84 213.684" stroke="#DBA91A" stroke-width="0.75" stroke-miterlimit="10" stroke-linecap="round" stroke-linejoin="round"/>
<path d="M272.08 187.459C272.08 187.459 297.345 196.201 310.949 185.517" stroke="#DBA91A" stroke-width="0.75" stroke-miterlimit="10" stroke-linecap="round" stroke-linejoin="round"/>
<path d="M255.075 230.682C255.075 230.682 239.527 229.711 239.527 255.45V352.094" stroke="#DBA91A" stroke-width="0.75" stroke-miterlimit="10" stroke-linecap="round" stroke-linejoin="round"/>
</svg>
