<svg width="584" height="609" viewBox="0 0 584 609" fill="none" xmlns="http://www.w3.org/2000/svg">
<path d="M545.618 226.797C513.551 113.641 403.261 26.7106 283.255 40.3087C282.769 39.3374 281.797 39.3374 280.34 39.3374C170.536 50.5072 80.6525 129.668 47.6142 233.11C43.2415 246.223 40.3263 259.335 37.4112 272.933C36.4395 273.419 35.9536 274.876 36.9253 275.361C35.9536 280.218 35.4678 285.074 34.9819 289.931C34.496 290.416 34.496 290.902 34.9819 291.388C30.6092 326.84 32.5526 363.263 42.2698 397.258C46.1566 411.342 51.9869 424.455 58.7889 436.596C58.7889 437.567 59.2747 438.538 60.2465 439.024C78.709 470.591 105.917 496.33 137.498 517.213C185.112 548.294 237.098 569.663 294.429 569.177C300.746 569.177 307.062 568.691 313.378 568.206C314.35 569.177 316.779 569.177 317.265 567.72C360.992 563.835 403.261 548.78 440.187 525.955C488.286 495.845 523.268 455.536 540.759 401.629C558.736 345.294 562.137 283.617 545.618 226.797Z" fill="#5581C1"/>
<path d="M194.672 209.741L190.787 464.679L327.299 466.758L331.184 211.819L194.672 209.741Z" fill="white" stroke="white" stroke-width="2.7" stroke-miterlimit="10" stroke-linecap="round" stroke-linejoin="round"/>
<path d="M373.138 171.433L391.601 200.572L388.2 444.366L327.468 467.191L331.355 211.742L373.138 171.433Z" fill="white" stroke="white" stroke-width="2.7" stroke-miterlimit="10" stroke-linecap="round" stroke-linejoin="round"/>
<path d="M235.641 169.005L194.829 209.799L331.354 211.742L373.138 171.433L235.641 169.005Z" fill="white" stroke="white" stroke-width="2.7" stroke-miterlimit="10" stroke-linecap="round" stroke-linejoin="round"/>
<path d="M235.981 144.877L235.611 169.157L372.609 171.243L372.979 146.963L235.981 144.877Z" fill="white" stroke="white" stroke-width="2.7" stroke-miterlimit="10" stroke-linecap="round" stroke-linejoin="round"/>
<path d="M315.161 251.904L208.283 250.277L206.654 357.108L313.532 358.736L315.161 251.904Z" stroke="#5581C1" stroke-width="0.75" stroke-miterlimit="10" stroke-linecap="round" stroke-linejoin="round"/>
<path d="M206.003 378.804L313.378 380.746" stroke="#5581C1" stroke-width="0.75" stroke-miterlimit="10" stroke-linecap="round" stroke-linejoin="round"/>
<path d="M281.019 200.932C288.943 199.517 294.641 194.303 293.744 189.287C292.848 184.27 285.697 181.35 277.773 182.765C269.849 184.179 264.151 189.393 265.048 194.41C265.944 199.426 273.094 202.346 281.019 200.932Z" stroke="#5581C1" stroke-width="0.75" stroke-miterlimit="10" stroke-linecap="round" stroke-linejoin="round"/>
<path d="M281.311 313.242C281.311 324.412 272.08 333.639 260.419 333.153C249.245 333.153 240.013 323.926 240.499 312.27C240.499 301.101 261.391 275.361 261.391 275.361C261.391 275.361 281.311 302.072 281.311 313.242Z" stroke="#5581C1" stroke-width="0.75" stroke-miterlimit="10" stroke-linecap="round" stroke-linejoin="round"/>
<path d="M189.97 214.656L326.496 216.598L368.28 176.29" stroke="#5581C1" stroke-width="0.75" stroke-miterlimit="10" stroke-linecap="round" stroke-linejoin="round"/>
<path d="M327.467 467.191L326.496 216.598" stroke="#5581C1" stroke-width="0.75" stroke-miterlimit="10" stroke-linecap="round" stroke-linejoin="round"/>
</svg>
