<svg width="584" height="609" viewBox="0 0 584 609" fill="none" xmlns="http://www.w3.org/2000/svg">
<path d="M546.103 227.282C514.522 114.127 404.719 26.7104 284.226 39.8228C283.74 39.3372 282.768 38.8515 281.311 38.8515C171.507 50.0214 81.6237 128.696 47.6137 232.139C43.7269 245.251 40.3259 258.363 37.8966 271.962C36.9249 272.447 36.439 273.904 37.4107 274.39C36.439 279.246 35.9531 284.103 34.9814 288.959C34.4956 289.445 34.4956 289.93 34.9814 290.416C30.6087 325.868 32.0663 362.292 42.2693 396.287C46.1561 410.371 51.9864 423.483 58.7884 435.624C58.7884 436.596 59.2743 437.567 60.246 438.052C78.7085 470.105 105.431 495.359 137.497 516.727C184.625 547.808 236.612 569.663 294.429 569.663C300.745 569.663 307.061 569.177 313.377 568.691C314.349 569.663 316.778 569.663 317.264 568.206C360.991 564.32 403.261 549.751 440.186 526.926C488.286 497.301 523.268 456.507 541.244 402.6C558.735 346.265 562.136 284.588 546.103 227.282Z" fill="#9490B5"/>
<path d="M366.822 252.536C368.765 285.56 343.501 314.213 310.462 316.156C277.424 318.098 248.759 292.845 246.815 259.821C244.872 226.797 266.735 140.352 299.774 138.409C332.812 136.467 364.878 219.026 366.822 252.536Z" fill="white" stroke="white" stroke-width="2.7" stroke-miterlimit="10" stroke-linecap="round" stroke-linejoin="round"/>
<path d="M300.26 168.034C304.632 208.342 308.519 248.165 312.406 288.474" stroke="#9490B5" stroke-width="0.75" stroke-miterlimit="10" stroke-linecap="round" stroke-linejoin="round"/>
<path d="M475.168 427.854C462.536 458.45 427.068 473.019 396.459 459.907C365.85 446.794 351.275 411.828 364.393 381.232C377.025 350.636 434.842 282.646 465.451 295.758C495.574 308.385 487.8 397.258 475.168 427.854Z" fill="white" stroke="white" stroke-width="2.7" stroke-miterlimit="10" stroke-linecap="round" stroke-linejoin="round"/>
<path d="M452.333 322.955C438.729 360.835 424.639 398.715 410.063 436.596" stroke="#9490B5" stroke-width="0.75" stroke-miterlimit="10" stroke-linecap="round" stroke-linejoin="round"/>
<path d="M102.516 379.775C87.9404 350.151 100.573 314.213 130.21 299.643C159.847 285.074 195.801 297.701 210.376 327.325C224.952 356.95 238.07 444.851 207.947 459.421C177.824 473.99 117.092 409.399 102.516 379.775Z" fill="white" stroke="white" stroke-width="2.7" stroke-miterlimit="10" stroke-linecap="round" stroke-linejoin="round"/>
<path d="M196.286 431.739C176.852 396.287 157.418 360.835 138.955 325.383" stroke="#9490B5" stroke-width="0.75" stroke-miterlimit="10" stroke-linecap="round" stroke-linejoin="round"/>
</svg>
