<svg width="584" height="609" viewBox="0 0 584 609" fill="none" xmlns="http://www.w3.org/2000/svg">
<path d="M546.103 226.797C514.523 113.641 404.233 26.7106 283.741 40.3087C283.255 39.3374 282.283 39.3374 280.825 39.3374C170.536 50.5072 80.6525 129.668 47.6142 233.11C43.2415 246.223 40.3263 259.335 37.4112 272.933C36.4395 273.419 35.9536 274.876 36.9253 275.361C35.9536 280.218 35.4678 285.074 34.9819 289.931C34.496 290.416 34.496 290.902 34.9819 291.388C30.6092 326.84 32.5526 363.263 42.2698 397.258C46.1566 411.342 51.9869 424.455 58.7889 436.596C58.7889 437.567 59.2747 438.538 60.2465 439.024C78.709 470.591 105.917 496.33 137.498 517.213C185.112 548.294 237.098 569.663 294.429 569.177C300.746 569.177 307.062 568.691 313.378 568.206C314.35 569.177 316.779 569.177 317.265 567.72C360.992 563.835 403.261 548.78 440.187 525.955C488.286 495.845 523.268 455.536 540.759 401.629C558.736 345.294 562.137 283.617 546.103 226.797Z" fill="#CF8055"/>
<path d="M291.514 474.476C146.729 452.136 150.616 301.1 150.616 301.1C152.559 154.435 291.514 136.952 291.514 136.952C291.514 136.952 430.469 154.435 432.413 301.1C431.927 301.586 436.299 452.136 291.514 474.476Z" fill="white" stroke="white" stroke-width="2.7" stroke-miterlimit="10" stroke-linecap="round" stroke-linejoin="round"/>
<path d="M291.514 446.308C174.423 431.253 173.451 298.186 173.451 298.186C178.31 178.232 291.514 167.062 291.514 167.062C291.514 167.062 404.719 178.232 409.578 298.186C409.578 297.701 408.606 430.768 291.514 446.308Z" fill="#CF8055"/>
<path d="M302.203 221.94C300.745 217.084 299.773 212.227 300.745 207.371C302.203 202.514 306.575 198.144 311.434 199.115C309.976 194.258 316.778 191.344 321.637 190.859C327.467 190.373 333.783 189.888 338.642 192.801C343.501 195.715 345.93 203.486 341.557 207.371C350.788 209.799 359.534 214.655 364.392 222.911C369.251 231.167 369.737 242.337 363.421 249.622C378.482 256.907 386.256 269.048 389.171 285.56C392.086 302.072 386.742 321.498 370.223 322.954C382.855 335.581 385.77 347.237 381.397 364.234C378.968 372.49 373.624 384.632 366.336 389.002C359.048 393.373 347.873 396.773 344.472 389.002C343.501 400.658 340.585 404.057 333.783 407.943C327.467 411.828 319.694 417.655 315.321 411.342C314.835 416.199 310.462 421.055 305.604 421.055C300.745 421.541 295.401 417.655 294.429 412.799C293.943 409.399 294.915 406 294.915 402.6C295.401 395.316 292 388.517 291.514 381.232C291.028 373.947 295.887 365.691 303.174 366.663C293.457 357.435 293.943 339.952 304.146 331.696C296.372 327.325 294.429 315.184 300.259 308.871C301.717 307.414 303.66 305.957 303.66 304.014C304.146 301.586 302.689 299.158 300.745 297.215C296.858 291.873 293.943 286.045 294.429 279.732C294.915 273.419 299.288 267.105 305.604 266.134C292.971 254.964 292 232.624 303.174 220.483" fill="white"/>
<path d="M302.203 221.94C300.745 217.084 299.773 212.227 300.745 207.371C302.203 202.514 306.575 198.144 311.434 199.115C309.976 194.258 316.778 191.344 321.637 190.859C327.467 190.373 333.783 189.888 338.642 192.801C343.501 195.715 345.93 203.486 341.557 207.371C350.788 209.799 359.534 214.655 364.392 222.911C369.251 231.167 369.737 242.337 363.421 249.622C378.482 256.907 386.256 269.048 389.171 285.56C392.086 302.072 386.742 321.498 370.223 322.955C382.855 335.581 385.77 347.237 381.397 364.234C378.968 372.49 373.624 384.632 366.336 389.002C359.048 393.373 347.873 396.773 344.472 389.002C343.501 400.658 340.585 404.057 333.783 407.943C327.467 411.828 319.694 417.655 315.321 411.342C314.835 416.199 310.462 421.055 305.604 421.055C300.745 421.541 295.401 417.655 294.429 412.799C293.943 409.399 294.915 406 294.915 402.6C295.401 395.316 292 388.517 291.514 381.232C291.028 373.947 295.887 365.691 303.174 366.663C293.457 357.435 293.943 339.952 304.146 331.696C296.372 327.325 294.429 315.184 300.259 308.871C301.717 307.414 303.66 305.957 303.66 304.014C304.146 301.586 302.689 299.158 300.745 297.215C296.858 291.873 293.943 286.045 294.429 279.732C294.915 273.419 299.288 267.105 305.604 266.134C292.971 254.964 292 232.624 303.174 220.483" stroke="#CF8055" stroke-miterlimit="10"/>
<path d="M280.339 221.94C281.797 217.084 282.768 212.227 281.797 207.371C280.339 202.514 275.966 198.144 271.108 199.115C272.565 194.258 265.763 191.344 260.905 190.859C255.074 190.373 248.758 189.888 243.9 192.801C239.041 195.715 236.612 203.486 240.985 207.371C231.753 209.799 223.008 214.655 218.149 222.911C213.291 231.167 212.805 242.337 219.121 249.622C204.059 256.907 196.286 269.048 193.371 285.56C190.455 302.072 195.8 321.498 212.319 322.954C199.687 335.581 196.772 347.237 201.144 364.234C203.574 372.49 208.918 384.632 216.206 389.002C223.494 393.373 234.668 396.773 238.069 389.002C239.041 400.658 241.956 404.057 248.758 407.943C255.074 411.828 262.848 417.655 267.221 411.342C267.707 416.199 272.079 421.055 276.938 421.055C281.797 421.541 287.141 417.655 288.113 412.799C288.599 409.399 287.627 406 287.627 402.6C287.141 395.316 290.542 388.517 291.028 381.232C291.514 373.947 286.655 365.691 279.367 366.663C289.084 357.435 288.599 339.952 278.396 331.696C286.169 327.325 288.113 315.184 282.282 308.871C280.825 307.414 278.881 305.957 278.881 304.014C278.396 301.586 279.853 299.158 281.797 297.215C285.683 291.873 288.599 286.045 288.113 279.732C287.627 273.419 283.254 267.105 276.938 266.134C289.57 254.964 290.542 232.624 279.367 220.483" fill="white"/>
<path d="M280.339 221.94C281.797 217.084 282.768 212.227 281.797 207.371C280.339 202.514 275.966 198.144 271.108 199.115C272.565 194.258 265.763 191.344 260.905 190.859C255.074 190.373 248.758 189.888 243.9 192.801C239.041 195.715 236.612 203.486 240.985 207.371C231.753 209.799 223.008 214.655 218.149 222.911C213.291 231.167 212.805 242.337 219.121 249.622C204.059 256.907 196.286 269.048 193.371 285.56C190.455 302.072 195.8 321.498 212.319 322.955C199.687 335.581 196.772 347.237 201.144 364.234C203.574 372.49 208.918 384.632 216.206 389.002C223.494 393.373 234.668 396.773 238.069 389.002C239.041 400.658 241.956 404.057 248.758 407.943C255.074 411.828 262.848 417.655 267.221 411.342C267.707 416.199 272.079 421.055 276.938 421.055C281.797 421.541 287.141 417.655 288.113 412.799C288.599 409.399 287.627 406 287.627 402.6C287.141 395.316 290.542 388.517 291.028 381.232C291.514 373.947 286.655 365.691 279.367 366.663C289.084 357.435 288.599 339.952 278.396 331.696C286.169 327.325 288.113 315.184 282.282 308.871C280.825 307.414 278.881 305.957 278.881 304.014C278.396 301.586 279.853 299.158 281.797 297.215C285.683 291.873 288.599 286.045 288.113 279.732C287.627 273.419 283.254 267.105 276.938 266.134C289.57 254.964 290.542 232.624 279.367 220.483" stroke="#CF8055" stroke-miterlimit="10"/>
</svg>
