<svg width="584" height="609" viewBox="0 0 584 609" fill="none" xmlns="http://www.w3.org/2000/svg">
<path d="M545.132 224.854C512.579 111.699 401.318 26.2249 281.311 40.7942C280.825 39.823 279.854 39.823 278.396 39.823C168.592 51.9641 79.6807 132.096 47.1282 235.538C43.2414 248.651 39.8404 261.763 37.4111 275.361C36.4394 275.847 36.4394 277.304 36.9252 277.789C35.9535 282.646 35.4677 287.502 34.9818 292.359C34.496 292.844 34.496 293.33 34.9818 293.816C31.095 329.268 33.0384 365.691 43.2414 399.687C47.6141 413.77 52.9585 426.883 60.2464 439.024C60.2464 439.995 60.7322 440.966 61.704 441.452C80.1665 473.019 107.86 498.273 139.927 519.155C187.541 549.751 240.013 571.12 297.345 570.148C303.661 570.148 309.977 569.663 316.293 569.177C317.265 570.148 319.694 570.148 320.18 568.691C363.421 564.321 406.177 549.266 442.616 525.955C490.716 495.359 524.726 454.565 542.216 400.658C559.221 343.352 561.651 281.675 545.132 224.854Z" fill="#ED696A"/>
<path d="M376.054 414.256C376.054 410.856 395.002 397.258 396.945 394.83C418.809 369.091 454.762 334.61 463.508 287.988C463.508 287.988 470.796 268.562 463.508 243.309C456.22 218.541 439.215 207.371 439.215 207.371C435.814 200.572 435.814 194.258 424.154 184.06C412.979 174.347 397.431 169.976 397.431 169.976C388.2 163.177 389.658 154.921 366.822 149.093C346.902 144.237 323.581 148.122 323.581 148.122C314.35 143.751 309.977 139.38 292.972 139.38C275.481 139.38 262.849 148.122 262.849 148.122C248.273 146.665 239.042 144.237 222.037 149.093C199.688 155.407 189.485 172.89 189.485 172.89C178.31 172.89 172.48 175.318 164.706 179.689C150.13 188.431 147.701 207.371 147.701 207.371C133.125 216.598 121.465 227.768 118.064 240.395C110.776 264.191 123.894 287.988 123.894 287.988C132.639 334.61 171.508 370.548 193.371 396.287C195.315 398.715 211.834 410.856 211.834 414.256C210.862 432.711 212.806 454.565 228.353 456.993H259.448C260.906 456.993 262.363 457.478 263.335 458.45C276.453 467.191 287.142 471.562 292 473.019C293.458 473.505 295.401 473.505 296.859 473.019C301.232 471.562 311.921 467.191 325.525 458.45C326.982 457.478 327.954 456.993 329.411 456.993H359.535C375.082 454.565 377.511 432.711 376.054 414.256Z" fill="white" stroke="white" stroke-width="2.7" stroke-miterlimit="10"/>
<path d="M283.74 364.72L263.334 148.122" stroke="#ED696A" stroke-width="0.75" stroke-miterlimit="10" stroke-linecap="round" stroke-linejoin="round"/>
<path d="M189.484 172.89L263.335 371.034" stroke="#ED696A" stroke-width="0.75" stroke-miterlimit="10" stroke-linecap="round" stroke-linejoin="round"/>
<path d="M147.7 207.371L239.527 388.517" stroke="#ED696A" stroke-width="0.75" stroke-miterlimit="10" stroke-linecap="round" stroke-linejoin="round"/>
<path d="M324.067 148.122L310.463 364.72" stroke="#ED696A" stroke-width="0.75" stroke-miterlimit="10" stroke-linecap="round" stroke-linejoin="round"/>
<path d="M397.431 169.49L334.27 371.519" stroke="#ED696A" stroke-width="0.75" stroke-miterlimit="10" stroke-linecap="round" stroke-linejoin="round"/>
<path d="M439.701 207.371L347.388 388.517" stroke="#ED696A" stroke-width="0.75" stroke-miterlimit="10" stroke-linecap="round" stroke-linejoin="round"/>
</svg>
