<svg width="584" height="609" viewBox="0 0 584 609" fill="none" xmlns="http://www.w3.org/2000/svg">
<path d="M545.617 226.311C513.551 113.155 403.261 26.7105 282.769 40.3086C282.283 39.3373 281.311 39.3373 279.853 39.3373C170.05 50.9928 80.6521 130.153 47.6138 233.596C43.7269 246.708 40.3259 259.821 37.8967 273.419C36.925 273.904 36.4391 275.361 37.4108 275.847C36.4391 280.703 35.9532 285.56 35.4674 290.416C34.9815 290.902 34.9815 291.388 35.4674 291.873C30.6088 327.811 32.5522 363.749 42.2694 398.23C46.1562 412.313 51.9865 425.426 58.7885 437.567C58.7885 438.538 59.2744 439.51 60.2461 439.995C78.7086 471.562 105.917 497.301 137.983 518.184C185.597 549.266 237.584 570.634 294.915 570.148C301.231 570.148 307.547 569.663 313.863 569.177C314.835 570.148 317.264 570.148 317.75 568.691C361.477 564.321 403.747 549.751 440.672 526.44C488.772 496.33 523.268 455.536 540.759 401.629C559.221 344.809 562.136 283.132 545.617 226.311Z" fill="#EC6049"/>
<path d="M265.278 143.266L278.882 206.4" stroke="white" stroke-width="0.75" stroke-miterlimit="10" stroke-linecap="round" stroke-linejoin="round"/>
<path d="M322.123 143.266L312.892 208.342" stroke="white" stroke-width="0.75" stroke-miterlimit="10" stroke-linecap="round" stroke-linejoin="round"/>
<path d="M340.1 270.505C397.917 269.533 389.657 208.342 389.657 208.342C389.657 208.342 452.818 187.945 419.78 149.579C419.78 149.579 410.549 135.495 396.459 134.038L392.572 169.49L358.076 167.062C358.076 167.062 349.817 186.488 379.94 205.914" stroke="white" stroke-width="2.7" stroke-miterlimit="10" stroke-linecap="round" stroke-linejoin="round"/>
<path d="M389.657 208.342C389.657 208.342 452.819 187.945 419.78 149.579C419.78 149.579 410.549 135.495 396.459 134.038L392.572 169.49L358.077 167.062C358.077 167.062 349.817 186.488 379.94 205.914" fill="white"/>
<path d="M406.176 288.959L372.166 309.842H337.185" stroke="white" stroke-width="0.75" stroke-miterlimit="10" stroke-linecap="round" stroke-linejoin="round"/>
<path d="M403.261 325.868L372.652 345.294H325.038" stroke="white" stroke-width="0.75" stroke-miterlimit="10" stroke-linecap="round" stroke-linejoin="round"/>
<path d="M248.759 270.505C190.942 269.533 199.201 208.342 199.201 208.342C199.201 208.342 136.04 187.945 169.078 149.579C169.078 149.579 178.31 135.495 192.399 134.038L196.286 169.49L230.782 167.062C230.782 167.062 239.042 186.488 208.919 205.914" stroke="white" stroke-width="2.7" stroke-miterlimit="10" stroke-linecap="round" stroke-linejoin="round"/>
<path d="M199.201 208.342C199.201 208.342 136.04 187.945 169.078 149.579C169.078 149.579 178.31 135.495 192.399 134.038L196.286 169.49L230.782 167.062C230.782 167.062 239.042 186.488 208.919 205.914" fill="white"/>
<path d="M183.654 288.959L217.664 309.842H251.674" stroke="white" stroke-width="0.75" stroke-miterlimit="10" stroke-linecap="round" stroke-linejoin="round"/>
<path d="M186.569 325.868L217.178 345.294H264.792" stroke="white" stroke-width="0.75" stroke-miterlimit="10" stroke-linecap="round" stroke-linejoin="round"/>
<path d="M312.892 427.368V364.234L276.938 366.663V421.541L312.892 427.368Z" fill="white" stroke="white" stroke-width="2.7" stroke-miterlimit="10" stroke-linecap="round" stroke-linejoin="round"/>
<path d="M282.769 380.747H312.892" stroke="#EC6049" stroke-width="0.75" stroke-miterlimit="10" stroke-linecap="round" stroke-linejoin="round"/>
<path d="M282.769 405.029H312.892" stroke="#EC6049" stroke-width="0.75" stroke-miterlimit="10" stroke-linecap="round" stroke-linejoin="round"/>
<path d="M294.429 364.235C319.652 364.235 340.1 327.706 340.1 282.646C340.1 237.586 319.652 201.058 294.429 201.058C269.206 201.058 248.759 237.586 248.759 282.646C248.759 327.706 269.206 364.235 294.429 364.235Z" fill="white" stroke="white" stroke-width="2.7" stroke-miterlimit="10" stroke-linecap="round" stroke-linejoin="round"/>
<path d="M299.288 428.825C299.288 428.825 336.699 433.196 337.185 461.363C337.185 461.363 338.642 476.418 309.005 473.99L294.429 472.533L279.853 473.99C250.216 476.418 251.674 461.363 251.674 461.363C252.16 433.196 289.571 428.825 289.571 428.825" fill="white"/>
<path d="M299.288 428.825C299.288 428.825 336.699 433.196 337.185 461.363C337.185 461.363 338.642 476.418 309.005 473.99L294.429 472.533L279.853 473.99C250.216 476.418 251.674 461.363 251.674 461.363C252.16 433.196 289.571 428.825 289.571 428.825" stroke="white" stroke-width="2.7" stroke-miterlimit="10" stroke-linecap="round" stroke-linejoin="round"/>
<path d="M284.226 215.627C284.226 215.627 259.447 231.168 259.933 293.816" stroke="#EC6049" stroke-width="0.75" stroke-miterlimit="10" stroke-linecap="round" stroke-linejoin="round"/>
</svg>
