<svg width="584" height="609" viewBox="0 0 584 609" fill="none" xmlns="http://www.w3.org/2000/svg">
<path d="M545.131 223.883C511.607 111.213 400.346 25.7394 280.339 40.7944C279.854 39.8231 278.882 39.8231 277.424 39.8231C167.621 52.4499 78.7088 132.581 46.6422 236.51C42.7553 249.622 39.3543 262.735 36.9251 276.333C35.9533 276.818 35.9533 278.275 36.4392 278.761C35.4675 283.617 34.9816 288.474 34.4958 293.33C34.0099 293.816 34.0099 294.302 34.4958 294.787C30.6089 330.239 33.0382 366.663 43.2412 400.658C47.6139 414.742 52.9583 427.854 60.2462 439.51C60.2462 440.481 60.732 441.452 61.7038 441.938C80.6522 473.505 107.86 498.758 139.927 519.156C187.541 549.751 240.013 570.634 297.344 569.663C303.66 569.663 309.977 569.177 316.293 568.691C317.264 569.663 319.694 569.663 320.18 568.206C363.421 563.835 406.176 548.294 442.616 524.983C490.23 494.388 524.725 453.593 541.73 399.201C559.221 342.866 561.651 281.189 545.131 223.883Z" fill="#E8932C"/>
<path d="M413.464 349.179C413.464 416.684 358.562 471.562 291.028 471.562C223.494 471.562 169.078 416.684 169.078 349.179C169.078 281.674 223.98 141.323 291.514 141.323C359.048 141.323 413.464 281.674 413.464 349.179Z" fill="white" stroke="white" stroke-miterlimit="10"/>
<path d="M203.574 278.275C203.574 278.275 141.385 407.942 261.877 453.107" stroke="#E8932C" stroke-width="0.75" stroke-miterlimit="10" stroke-linecap="round" stroke-linejoin="round"/>
</svg>
