<svg width="584" height="609" viewBox="0 0 584 609" fill="none" xmlns="http://www.w3.org/2000/svg">
<path d="M545.618 225.825C513.551 112.67 402.776 26.7105 282.283 40.7942C281.797 39.8229 280.826 39.8229 279.368 39.8229C169.564 51.4784 80.1668 131.124 47.1285 234.567C43.2416 247.679 39.8406 260.792 37.4113 274.39C36.4396 274.876 36.4396 276.332 36.9255 276.818C35.9538 281.675 35.4679 286.531 34.9821 291.387C34.4962 291.873 34.4962 292.359 34.9821 292.844C30.6093 328.297 33.0386 364.72 42.7558 398.715C46.6426 412.799 52.4729 425.911 59.2749 438.053C59.2749 439.024 59.7608 439.995 60.7325 440.481C79.195 472.048 106.403 497.301 138.47 518.184C186.084 549.265 238.07 570.148 295.887 569.663C302.203 569.663 308.52 569.177 314.836 568.691C315.807 569.663 318.237 569.663 318.722 568.206C361.964 563.835 404.719 548.78 441.644 525.954C489.744 495.844 524.24 455.05 541.731 401.143C559.222 344.323 561.651 282.646 545.618 225.825Z" fill="#CEA642"/>
<path d="M294.43 145.694C320.666 129.668 361.478 140.352 374.11 153.95C396.46 177.261 402.29 212.713 388.686 240.88C385.771 247.194 383.342 253.507 379.455 259.335C360.992 287.988 356.134 319.555 359.535 353.55C362.45 382.203 351.275 407.457 330.383 427.369C311.435 445.823 289.571 460.878 263.335 468.163C240.014 474.962 223.495 467.191 208.919 448.251C179.282 408.428 194.343 342.38 228.839 306.928C239.528 296.244 242.929 286.046 241.957 270.991C240.5 247.194 241.957 222.912 247.787 199.601C254.589 173.861 271.594 157.349 294.43 145.694Z" fill="white" stroke="white" stroke-width="2.7" stroke-miterlimit="10" stroke-linecap="round" stroke-linejoin="round"/>
<path d="M214.263 427.368C249.73 354.036 294.915 276.818 263.334 192.801" stroke="#CEA642" stroke-width="0.75" stroke-linecap="round" stroke-linejoin="round"/>
<path d="M273.537 431.739C279.367 415.227 286.169 399.201 292 382.203C306.09 341.895 316.293 305.957 318.236 257.392C319.694 228.739 326.01 199.115 313.377 173.375" stroke="#CEA642" stroke-width="0.75" stroke-linecap="round" stroke-linejoin="round"/>
<path d="M238.556 448.737C259.448 397.744 276.453 345.294 289.085 291.873C298.316 251.565 305.118 208.342 289.085 170.462" stroke="#CEA642" stroke-width="0.75" stroke-linecap="round" stroke-linejoin="round"/>
<path d="M257.99 212.227C288.113 205.914 306.576 204.943 327.468 205.428C333.298 205.428 351.761 207.857 356.619 209.314" stroke="#CEA642" stroke-width="0.75" stroke-linecap="round" stroke-linejoin="round"/>
<path d="M254.589 253.022C269.65 248.165 284.712 244.766 300.259 242.823C324.066 239.424 333.298 245.251 343.987 256.421C345.444 257.878 345.93 260.792 343.987 260.306" stroke="#CEA642" stroke-width="0.75" stroke-linecap="round" stroke-linejoin="round"/>
<path d="M257.019 300.129C277.91 296.244 300.26 298.672 319.208 307.9" stroke="#CEA642" stroke-width="0.75" stroke-linecap="round" stroke-linejoin="round"/>
<path d="M214.263 351.122C229.324 349.665 244.386 348.208 259.447 346.751C269.65 345.78 279.853 344.808 289.571 347.722C300.259 350.636 309.491 357.435 317.75 364.234" stroke="#CEA642" stroke-width="0.75" stroke-linecap="round" stroke-linejoin="round"/>
<path d="M210.376 398.715C231.268 389.002 255.075 386.088 277.91 390.459C289.085 392.402 300.745 397.258 307.062 406.971C306.09 406 305.118 405.514 304.632 404.543" stroke="#CEA642" stroke-width="0.75" stroke-linecap="round" stroke-linejoin="round"/>
</svg>
