<svg width="584" height="609" viewBox="0 0 584 609" fill="none" xmlns="http://www.w3.org/2000/svg">
<path d="M545.617 225.825C513.551 112.67 402.775 26.7105 282.283 40.7942C281.797 39.8229 280.825 39.8229 279.368 39.8229C169.564 51.4784 80.1665 131.124 47.1282 234.567C43.2414 247.679 39.8404 260.792 37.4111 274.39C36.4394 274.876 36.4394 276.332 36.9252 276.818C35.9535 281.675 35.4677 286.531 34.9818 291.387C34.4959 291.873 34.4959 292.359 34.9818 292.844C30.6091 328.297 32.5525 364.234 42.7555 398.715C46.6424 412.799 52.4726 425.911 59.2746 438.053C59.2746 439.024 59.7605 439.995 60.7322 440.481C79.1948 472.048 106.403 497.301 138.469 518.184C186.083 549.265 238.07 570.148 295.887 569.663C302.203 569.663 308.519 569.177 314.835 568.691C315.807 569.663 318.236 569.663 318.722 568.206C361.964 563.835 404.719 548.78 441.644 525.954C489.744 495.844 524.24 455.05 541.731 401.143C559.221 344.323 561.651 282.646 545.617 225.825Z" fill="#43BBD5"/>
<path d="M236.612 208.828C236.612 208.828 261.877 167.548 312.892 189.888C312.892 189.888 292 199.115 287.141 208.828" fill="white"/>
<path d="M236.612 208.828C236.612 208.828 261.877 167.548 312.892 189.888C312.892 189.888 292 199.115 287.141 208.828" stroke="white" stroke-width="2.7" stroke-miterlimit="10" stroke-linecap="round" stroke-linejoin="round"/>
<path d="M236.612 401.629C245.844 412.799 272.08 436.596 312.892 418.627C312.892 418.627 297.344 410.371 289.085 401.629" fill="white"/>
<path d="M236.612 401.629C245.844 412.799 272.08 436.596 312.892 418.627C312.892 418.627 297.344 410.371 289.085 401.629" stroke="white" stroke-width="2.7" stroke-miterlimit="10" stroke-linecap="round" stroke-linejoin="round"/>
<path d="M147.215 246.708C147.215 246.708 81.138 287.017 125.351 340.924C125.351 340.924 189.97 413.771 282.283 403.086C282.283 403.086 343.501 393.859 384.313 344.809L415.893 304.5C415.893 304.5 391.601 268.077 369.251 250.108C369.251 250.108 314.349 194.259 229.81 208.828C230.296 208.828 190.456 214.656 147.215 246.708Z" fill="white" stroke="white" stroke-width="2.7" stroke-miterlimit="10" stroke-linecap="round" stroke-linejoin="round"/>
<path d="M478.569 214.17C478.569 214.17 392.572 229.711 417.351 304.5C417.351 304.014 486.343 302.557 478.569 214.17Z" fill="white" stroke="white" stroke-width="2.7" stroke-miterlimit="10" stroke-linecap="round" stroke-linejoin="round"/>
<path d="M478.569 394.344C478.569 394.344 392.572 378.804 417.351 304.014C417.351 304.014 486.343 305.471 478.569 394.344Z" fill="white" stroke="white" stroke-width="2.7" stroke-miterlimit="10" stroke-linecap="round" stroke-linejoin="round"/>
<path d="M210.376 214.17C210.376 214.17 272.08 271.476 205.032 363.263" stroke="#43BBD5" stroke-width="0.75" stroke-miterlimit="10" stroke-linecap="round" stroke-linejoin="round"/>
<path d="M249.244 283.132C249.244 283.132 266.249 268.077 285.684 272.933C285.684 272.933 313.378 277.79 279.853 309.842C279.853 309.842 293.457 338.981 267.221 339.952C267.221 339.952 249.244 339.467 239.527 336.067" stroke="#43BBD5" stroke-width="0.75" stroke-miterlimit="10" stroke-linecap="round" stroke-linejoin="round"/>
<path d="M177.824 294.302C183.995 294.302 188.998 289.301 188.998 283.132C188.998 276.963 183.995 271.962 177.824 271.962C171.652 271.962 166.649 276.963 166.649 283.132C166.649 289.301 171.652 294.302 177.824 294.302Z" fill="#43BBD5"/>
<path d="M393.544 311.785C393.544 311.785 374.11 350.151 315.321 381.718" stroke="#43BBD5" stroke-width="0.75" stroke-miterlimit="10" stroke-linecap="round" stroke-linejoin="round"/>
</svg>
