<svg width="584" height="609" viewBox="0 0 584 609" fill="none" xmlns="http://www.w3.org/2000/svg">
<path d="M546.589 227.768C515.494 114.612 405.69 27.1962 285.198 39.823C284.712 38.8517 283.74 38.3661 282.282 38.8517C172.479 49.0503 82.1094 127.725 48.0994 231.168C43.7267 244.28 40.3257 257.392 37.8964 270.99C36.9247 271.476 36.4389 272.933 37.4106 273.419C36.4389 278.275 35.953 283.132 34.9813 287.988C34.4954 288.474 34.4954 288.959 34.9813 289.445C30.6086 324.897 32.0661 361.321 41.7833 395.316C45.6701 409.4 51.0146 422.512 57.8166 434.653C57.8166 435.624 58.3024 436.596 59.2741 437.081C77.2508 469.134 104.459 494.873 136.04 515.756C183.168 547.323 235.154 569.177 292.485 569.177C298.802 569.177 305.118 569.177 311.434 568.691C312.406 570.148 314.835 569.663 315.321 568.206C359.048 564.321 401.317 549.751 438.728 527.412C487.314 497.787 522.296 457.479 540.272 403.572C558.735 346.751 562.136 285.074 546.589 227.768Z" fill="#209FB4"/>
<path d="M295.887 269.048V232.139" stroke="white" stroke-miterlimit="10" stroke-linecap="round" stroke-linejoin="round"/>
<path d="M210.862 381.718L233.212 368.12" stroke="white" stroke-miterlimit="10" stroke-linecap="round" stroke-linejoin="round"/>
<path d="M388.686 386.089L350.789 363.749" stroke="white" stroke-miterlimit="10" stroke-linecap="round" stroke-linejoin="round"/>
<path d="M295.886 393.859C330.501 393.859 358.562 365.81 358.562 331.21C358.562 296.611 330.501 268.562 295.886 268.562C261.272 268.562 233.211 296.611 233.211 331.21C233.211 365.81 261.272 393.859 295.886 393.859Z" fill="white" stroke="white" stroke-width="2.7" stroke-miterlimit="10" stroke-linecap="round" stroke-linejoin="round"/>
<path d="M295.887 230.196C320.305 230.196 340.1 210.41 340.1 186.002C340.1 161.595 320.305 141.809 295.887 141.809C271.469 141.809 251.674 161.595 251.674 186.002C251.674 210.41 271.469 230.196 295.887 230.196Z" fill="white" stroke="white" stroke-width="2.7" stroke-miterlimit="10" stroke-linecap="round" stroke-linejoin="round"/>
<path d="M425.125 451.651C449.543 451.651 469.338 431.865 469.338 407.457C469.338 383.049 449.543 363.263 425.125 363.263C400.707 363.263 380.912 383.049 380.912 407.457C380.912 431.865 400.707 451.651 425.125 451.651Z" fill="white" stroke="white" stroke-width="2.7" stroke-miterlimit="10" stroke-linecap="round" stroke-linejoin="round"/>
<path d="M166.163 451.651C190.581 451.651 210.376 431.865 210.376 407.457C210.376 383.049 190.581 363.263 166.163 363.263C141.745 363.263 121.95 383.049 121.95 407.457C121.95 431.865 141.745 451.651 166.163 451.651Z" fill="white" stroke="white" stroke-width="2.7" stroke-miterlimit="10" stroke-linecap="round" stroke-linejoin="round"/>
<path d="M132.153 404.058C132.153 404.058 130.21 429.311 159.847 439.995" stroke="#209FB4" stroke-width="0.75" stroke-miterlimit="10" stroke-linecap="round" stroke-linejoin="round"/>
<path d="M391.115 404.058C391.115 404.058 389.172 429.311 418.809 439.995" stroke="#209FB4" stroke-width="0.75" stroke-miterlimit="10" stroke-linecap="round" stroke-linejoin="round"/>
<path d="M261.391 182.117C261.391 182.117 259.448 207.371 289.085 218.055" stroke="#209FB4" stroke-width="0.75" stroke-miterlimit="10" stroke-linecap="round" stroke-linejoin="round"/>
<path d="M244.872 327.811C244.872 327.811 244.872 369.091 282.283 381.232" stroke="#209FB4" stroke-width="0.75" stroke-miterlimit="10" stroke-linecap="round" stroke-linejoin="round"/>
</svg>
