<svg width="23" height="28" viewBox="0 0 23 28" fill="none" xmlns="http://www.w3.org/2000/svg">
<g clip-path="url(#clip0_209_1057)">
<path d="M22.2364 9.5452C22.073 9.6712 19.1882 11.2868 19.1882 14.8792C19.1882 19.0344 22.8591 20.5044 22.9689 20.5408C22.952 20.6304 22.3858 22.554 21.0335 24.514C19.8277 26.2388 18.5684 27.9608 16.6527 27.9608C14.737 27.9608 14.244 26.8548 12.0325 26.8548C9.87728 26.8548 9.111 27.9972 7.35868 27.9972C5.60637 27.9972 4.38369 26.4012 2.9779 24.4412C1.34954 22.1396 0.0338974 18.564 0.0338974 15.1704C0.0338974 9.7272 3.59487 6.8404 7.0995 6.8404C8.96168 6.8404 10.514 8.0556 11.6831 8.0556C12.7959 8.0556 14.5313 6.7676 16.6499 6.7676C17.4528 6.7676 20.3376 6.8404 22.2364 9.5452ZM15.6441 4.4632C16.5203 3.43 17.1401 1.9964 17.1401 0.5628C17.1401 0.364 17.1232 0.1624 17.0866 0C15.661 0.0532 13.9651 0.9436 12.9424 2.1224C12.1395 3.0296 11.3901 4.4632 11.3901 5.9164C11.3901 6.1348 11.4268 6.3532 11.4437 6.4232C11.5338 6.44 11.6803 6.4596 11.8268 6.4596C13.1058 6.4596 14.7145 5.6084 15.6441 4.4632Z" fill="white"/>
</g>
<defs>
<clipPath id="clip0_209_1057">
<rect width="23" height="28" fill="white"/>
</clipPath>
</defs>
</svg>
