<svg width="584" height="609" viewBox="0 0 584 609" fill="none" xmlns="http://www.w3.org/2000/svg">
<path d="M545.132 224.854C512.579 112.184 401.804 25.739 281.311 40.3084C280.825 39.3371 279.854 39.3371 278.396 39.3371C168.592 51.4782 79.6807 131.124 47.1282 235.052C43.2414 248.165 39.8404 261.277 37.4111 274.875C36.4394 275.361 36.4394 276.818 36.9252 277.304C35.9535 282.16 35.4677 287.017 34.9818 291.873C34.496 292.359 34.496 292.844 34.9818 293.33C31.095 328.782 33.0384 365.206 43.2414 399.201C47.6141 413.284 52.9585 426.397 59.7605 438.538C59.7605 439.509 60.2464 440.481 61.2181 440.966C79.6807 472.533 106.889 497.787 138.955 518.67C186.569 549.265 239.042 570.634 296.373 569.662C302.689 569.662 309.005 569.177 315.321 568.691C316.293 569.662 318.722 569.662 319.208 568.206C362.449 563.835 405.205 548.78 442.13 525.469C490.23 495.359 524.726 454.564 541.731 400.172C559.221 343.837 561.651 282.16 545.132 224.854Z" fill="#99BB4E"/>
<path d="M136.526 459.421C136.526 459.421 267.707 499.73 290.542 385.117C290.542 385.117 373.138 381.718 371.68 302.557C371.68 302.557 477.111 310.813 454.276 147.151C454.276 147.151 306.576 113.156 296.858 224.854C296.858 224.854 214.263 220.483 212.805 304.5C212.805 304.014 107.374 302.558 136.526 459.421Z" fill="white" stroke="white" stroke-width="2.7" stroke-miterlimit="10" stroke-linecap="round" stroke-linejoin="round"/>
<path d="M372.652 267.105C395.728 267.105 414.436 248.406 414.436 225.34C414.436 202.273 395.728 183.574 372.652 183.574C349.575 183.574 330.868 202.273 330.868 225.34C330.868 248.406 349.575 267.105 372.652 267.105Z" stroke="#99BB4E" stroke-width="0.75" stroke-miterlimit="10" stroke-linecap="round" stroke-linejoin="round"/>
<path d="M294.429 345.78C317.506 345.78 336.213 327.081 336.213 304.015C336.213 280.948 317.506 262.249 294.429 262.249C271.353 262.249 252.646 280.948 252.646 304.015C252.646 327.081 271.353 345.78 294.429 345.78Z" stroke="#99BB4E" stroke-width="0.75" stroke-miterlimit="10" stroke-linecap="round" stroke-linejoin="round"/>
<path d="M210.862 429.797C233.938 429.797 252.646 411.098 252.646 388.031C252.646 364.965 233.938 346.266 210.862 346.266C187.785 346.266 169.078 364.965 169.078 388.031C169.078 411.098 187.785 429.797 210.862 429.797Z" stroke="#99BB4E" stroke-width="0.75" stroke-miterlimit="10" stroke-linecap="round" stroke-linejoin="round"/>
<path d="M203.574 420.084C203.574 420.084 233.211 428.34 242.929 395.801" stroke="#99BB4E" stroke-width="0.75" stroke-miterlimit="10" stroke-linecap="round" stroke-linejoin="round"/>
<path d="M288.113 337.524C288.113 337.524 317.751 345.78 327.468 313.242" stroke="#99BB4E" stroke-width="0.75" stroke-miterlimit="10" stroke-linecap="round" stroke-linejoin="round"/>
<path d="M365.364 257.392C365.364 257.392 395.002 265.648 404.719 233.11" stroke="#99BB4E" stroke-width="0.75" stroke-miterlimit="10" stroke-linecap="round" stroke-linejoin="round"/>
</svg>
